HIERARCHY
ROOT Hips
{
    OFFSET 0.000000 0.000000 0.000000
    CHANNELS 6 Xposition Yposition Zposition Zrotation Xrotation Yrotation
    JOINT Spine
    {
        OFFSET -0.000000 14.517291 0.000000
        CHANNELS 3 Zrotation Xrotation Yrotation
        JOINT Spine1
        {
            OFFSET -0.000000 37.558300 0.000000
            CHANNELS 3 Zrotation Xrotation Yrotation
            JOINT Neck
            {
                OFFSET -0.000000 37.404057 3.400369
                CHANNELS 3 Zrotation Xrotation Yrotation
                JOINT Head
                {
                    OFFSET -0.000000 24.785618 -3.540803
                    CHANNELS 3 Zrotation Xrotation Yrotation
                    End Site
                    {
                        OFFSET -0.000000 35.408028 0.000000
                    }
                }
            }
            JOINT LeftShoulder
            {
                OFFSET 6.992933 33.973492 -0.192664
                CHANNELS 3 Zrotation Xrotation Yrotation
                JOINT LeftArm
                {
                    OFFSET 21.527611 0.000000 0.000000
                    CHANNELS 3 Zrotation Xrotation Yrotation
                    JOINT LeftForeArm
                    {
                        OFFSET 56.353916 0.000000 0.000000
                        CHANNELS 3 Zrotation Xrotation Yrotation
                        JOINT LeftHand
                        {
                            OFFSET 47.774071 0.000000 0.000000
                            CHANNELS 3 Zrotation Xrotation Yrotation
                            End Site
                            {
                                OFFSET 26.556021 0.000000 0.000000
                            }
                        }
                    }
                }
            }
            JOINT RightShoulder
            {
                OFFSET -7.065357 33.973492 -0.192664
                CHANNELS 3 Zrotation Xrotation Yrotation
                JOINT RightArm
                {
                    OFFSET -21.527611 0.000000 0.000000
                    CHANNELS 3 Zrotation Xrotation Yrotation
                    JOINT RightForeArm
                    {
                        OFFSET -56.353916 0.000000 0.000000
                        CHANNELS 3 Zrotation Xrotation Yrotation
                        JOINT RightHand
                        {
                            OFFSET -47.774071 0.000000 0.000000
                            CHANNELS 3 Zrotation Xrotation Yrotation
                            End Site
                            {
                                OFFSET -26.556021 0.000000 0.000000
                            }
                        }
                    }
                }
            }
        }
    }
    JOINT LeftUpLeg
    {
        OFFSET 17.704014 0.000000 0.000000
        CHANNELS 3 Zrotation Xrotation Yrotation
        JOINT LeftLeg
        {
            OFFSET -0.000000 -81.181816 0.000000
            CHANNELS 3 Zrotation Xrotation Yrotation
            JOINT LeftFoot
            {
                OFFSET -0.000000 -62.821102 0.000000
                CHANNELS 3 Zrotation Xrotation Yrotation
                JOINT LeftToeBase
                {
                    OFFSET -0.000000 -11.507608 26.556021
                    CHANNELS 3 Zrotation Xrotation Yrotation
                    End Site
                    {
                        OFFSET -0.000000 0.000000 7.081605
                    }
                }
            }
        }
    }
    JOINT RightUpLeg
    {
        OFFSET -17.704014 0.000000 0.000000
        CHANNELS 3 Zrotation Xrotation Yrotation
        JOINT RightLeg
        {
            OFFSET -0.000000 -81.181816 0.000000
            CHANNELS 3 Zrotation Xrotation Yrotation
            JOINT RightFoot
            {
                OFFSET -0.000000 -62.821102 0.000000
                CHANNELS 3 Zrotation Xrotation Yrotation
                JOINT RightToeBase
                {
                    OFFSET -0.000000 -11.507608 26.556021
                    CHANNELS 3 Zrotation Xrotation Yrotation
                    End Site
                    {
                        OFFSET -0.000000 0.000000 7.081605
                    }
                }
            }
        }
    }
}
MOTION
Frames:    11
Frame Time:    0.008333
-10.061190    151.791061    -13.058722    0.172770    0.853269    22.370865    -2.134313    0.320029    7.301284    -2.139670    3.092095    2.491246    -8.089709    -8.119428    -14.848688    18.227531    8.062685    -12.398444    4.703864    4.148204    -10.804179    -48.443405    40.049541    -11.398052    -23.303791    -0.907422    -38.091908    -6.237609    -8.503636    -9.960417    -13.737899    0.305570    6.635953    23.824112    -20.725378    57.023220    -7.439255    -20.543098    15.226413    11.460205    -15.531529    40.787926    1.444561    -33.939121    -27.274168    -10.159045    21.357321    -22.150972    -10.909950    3.893853    29.890314    0.000000    0.000000    0.000000    3.529370    11.563619    -12.957736    3.234208    23.575638    -0.906704    -3.667743    -31.036081    -7.142967    0.000000    0.000000    0.000000    
-10.055432    151.782852    -13.048302    0.173061    0.841544    22.340820    -2.136083    0.303821    7.317023    -2.139359    3.101029    2.496742    -8.073610    -8.099893    -14.843979    18.207502    8.016060    -12.392385    4.708009    4.148360    -10.807240    -48.351780    40.015327    -11.472619    -23.325975    -0.919145    -37.841545    -6.711185    -8.414515    -10.135906    -13.738974    0.299031    6.655854    23.796240    -20.738474    57.000042    -7.441978    -20.554045    15.244001    11.445083    -15.548334    40.773754    1.463403    -33.943619    -27.262018    -10.181400    21.403818    -22.108547    -10.900661    3.853636    29.867985    0.000000    0.000000    0.000000    3.521644    11.570393    -12.943394    3.240632    23.596304    -0.893190    -3.673840    -31.047091    -7.152466    0.000000    0.000000    0.000000    
-10.051869    151.777008    -13.034005    0.174456    0.823813    22.316849    -2.140542    0.296124    7.327833    -2.133837    3.108463    2.500363    -8.092572    -8.087160    -14.840548    18.239225    7.987845    -12.378621    4.704299    4.147270    -10.802320    -48.257843    39.994682    -11.546666    -23.292025    -0.842477    -37.604473    -6.154802    -8.327190    -10.026020    -13.742057    0.297713    6.653476    23.788719    -20.757515    57.012569    -7.447879    -20.538122    15.245834    11.437240    -15.535740    40.757248    1.481625    -33.941170    -27.261517    -10.199986    21.451496    -22.094227    -10.899030    3.799441    29.870209    0.000000    0.000000    0.000000    3.525190    11.586871    -12.934896    3.227656    23.605894    -0.896541    -3.655019    -31.048433    -7.127730    0.000000    0.000000    0.000000    
-10.044707    151.770599    -13.022179    0.181006    0.808756    22.289732    -2.146984    0.288517    7.340583    -2.129707    3.113107    2.504633    -8.073342    -8.091629    -14.827667    18.206247    7.972551    -12.368951    4.700378    4.149157    -10.806035    -48.183140    40.007973    -11.597102    -23.199978    -0.855990    -37.398361    -6.188923    -8.258312    -10.024283    -13.746099    0.278523    6.665089    23.763573    -20.743717    56.998230    -7.475391    -20.538374    15.251892    11.441377    -15.529465    40.766911    1.492915    -33.944046    -27.252424    -10.224393    21.505661    -22.024153    -10.893185    3.769476    29.826450    0.000000    0.000000    0.000000    3.516253    11.606488    -12.929730    3.226783    23.611012    -0.898878    -3.665926    -31.063118    -7.102551    0.000000    0.000000    0.000000    
-10.037811    151.760620    -13.001145    0.186941    0.786819    22.261023    -2.151474    0.279749    7.356931    -2.135046    3.129450    2.510578    -8.070315    -8.095758    -14.820691    18.227148    7.958354    -12.358193    4.716733    4.149755    -10.801978    -48.101898    40.019806    -11.655587    -23.134150    -0.856043    -37.215988    -6.218839    -8.189080    -10.065248    -13.735900    0.259012    6.670502    23.772614    -20.781477    56.998760    -7.451994    -20.511553    15.268158    11.424576    -15.511592    40.751881    1.520072    -33.937317    -27.236998    -10.257298    21.553299    -21.975893    -10.898432    3.715860    29.790346    0.000000    0.000000    0.000000    3.516218    11.647188    -12.924378    3.228086    23.588636    -0.910553    -3.667519    -31.068245    -7.094702    0.000000    0.000000    0.000000    
-10.031718    151.748352    -12.979737    0.185557    0.761485    22.233294    -2.146413    0.271958    7.370844    -2.127249    3.137491    2.515196    -8.062057    -8.079327    -14.807501    18.219913    7.928891    -12.343100    4.706109    4.147199    -10.807705    -48.010860    40.012184    -11.695504    -23.122370    -0.858142    -37.035084    -6.236023    -8.140574    -10.139860    -13.747344    0.264483    6.676835    23.637852    -20.619673    56.921116    -7.638437    -20.662659    15.316195    11.490350    -15.617918    40.733994    1.547925    -33.940189    -27.214117    -10.293480    21.622864    -21.911821    -10.860544    3.680220    29.738817    0.000000    0.000000    0.000000    3.519314    11.691012    -12.932525    3.221649    23.564804    -0.903863    -3.671140    -31.083641    -7.042479    0.000000    0.000000    0.000000    
-10.021806    151.736237    -12.956421    0.188216    0.734729    22.212477    -2.150454    0.268637    7.378646    -2.119712    3.140474    2.517666    -8.070575    -8.068994    -14.800625    18.258083    7.917485    -12.330107    4.714944    4.149213    -10.803684    -47.959618    40.035728    -11.732277    -23.055464    -0.904998    -36.878300    -6.226437    -8.126672    -10.186715    -13.763065    0.393942    6.588515    23.723257    -20.742155    57.113075    -7.621374    -20.634398    15.283695    11.490213    -15.588422    40.777542    1.565883    -33.940544    -27.207939    -10.331525    21.691044    -21.825279    -10.842845    3.641538    29.675068    0.000000    0.000000    0.000000    3.520558    11.745007    -12.945203    3.219930    23.528139    -0.892050    -3.651034    -31.094826    -6.997040    0.000000    0.000000    0.000000    
-10.014422    151.721024    -12.932345    0.190167    0.711755    22.194788    -2.150046    0.261662    7.385693    -2.125315    3.144496    2.520289    -8.068485    -8.067027    -14.794477    18.291437    7.922455    -12.322668    4.722013    4.144279    -10.805988    -47.888058    40.039215    -11.764145    -23.014011    -0.920136    -36.731110    -6.283715    -8.088492    -10.198833    -13.729536    0.294036    6.673869    23.650513    -20.705359    56.969841    -7.605955    -20.645956    15.323444    11.504259    -15.595407    40.770664    1.580182    -33.947876    -27.190897    -10.359735    21.769886    -21.794571    -10.816525    3.603313    29.639557    0.000000    0.000000    0.000000    3.523398    11.794233    -12.943686    3.224585    23.495859    -0.862000    -3.668753    -31.107359    -7.016137    0.000000    0.000000    0.000000    
-10.007264    151.708008    -12.908879    0.184891    0.690928    22.175617    -2.141900    0.241627    7.390392    -2.136649    3.162059    2.522596    -8.045890    -8.057284    -14.780507    18.313572    7.908083    -12.309764    4.743541    4.126575    -10.800316    -47.834682    40.044765    -11.787970    -22.980328    -0.963059    -36.621582    -6.308723    -8.092897    -10.194281    -13.776964    0.594103    6.456002    23.849094    -20.912708    57.406342    -7.641809    -20.610632    15.222672    11.511377    -15.554089    40.809639    1.595825    -33.960308    -27.171907    -10.376295    21.854494    -21.773003    -10.799217    3.557953    29.606670    0.000000    0.000000    0.000000    3.530497    11.831262    -12.924583    3.233878    23.475653    -0.848328    -3.697505    -31.115137    -7.035087    0.000000    0.000000    0.000000    
-10.000391    151.696365    -12.885920    0.181245    0.673661    22.162252    -2.144297    0.226622    7.392233    -2.139188    3.161881    2.523366    -8.012033    -8.060495    -14.767241    18.315546    7.927131    -12.306094    4.760026    4.115470    -10.801014    -47.775471    40.031727    -11.819020    -23.001154    -1.021397    -36.493446    -6.241466    -8.130849    -10.269851    -13.756708    0.600272    6.467700    23.990629    -21.153194    57.498253    -7.411600    -20.452353    15.186053    11.414676    -15.450436    40.882099    1.607359    -33.976002    -27.168379    -10.402274    21.936777    -21.743748    -10.772177    3.518914    29.573988    0.000000    0.000000    0.000000    3.534287    11.867744    -12.914016    3.240732    23.454805    -0.827045    -3.715923    -31.119740    -7.031983    0.000000    0.000000    0.000000    
-9.987350    151.687210    -12.860769    0.179316    0.661481    22.145193    -2.144543    0.200233    7.393673    -2.145076    3.172059    2.524351    -7.985956    -8.080062    -14.758151    18.313263    7.965708    -12.307420    4.772305    4.105191    -10.788944    -47.714615    40.054878    -11.868483    -22.992634    -1.109891    -36.382858    -6.199760    -8.191891    -10.318444    -13.745335    0.610265    6.476178    24.014870    -21.198551    57.521267    -7.396578    -20.438231    15.181888    11.379021    -15.454736    40.848621    1.613517    -33.986378    -27.159649    -10.415933    22.004150    -21.745695    -10.751562    3.476101    29.569254    0.000000    0.000000    0.000000    3.536534    11.895908    -12.898910    3.239017    23.439369    -0.832916    -3.692234    -31.129622    -7.010885    0.000000    0.000000    0.000000    
